<svg width="159" height="30" viewBox="0 0 159 30" fill="none" xmlns="http://www.w3.org/2000/svg">
<path d="M8.13511 28.7807V5.68669H0.124512V1.4274H21.3428V5.68669H13.3713V28.7807H8.13511Z" fill="#2E2E2E"/>
<path d="M20.7881 28.7807V9.08631H25.4773L25.9853 12.7204C26.4542 11.8607 27.0403 11.1313 27.7437 10.5321C28.4731 9.93296 29.2937 9.46405 30.2055 9.12539C31.1433 8.78673 32.1723 8.6174 33.2925 8.6174V14.2053H31.495C30.7135 14.2053 29.984 14.2965 29.3067 14.4788C28.6555 14.6612 28.0823 14.9608 27.5874 15.3776C27.0924 15.7683 26.7147 16.3154 26.4542 17.0188C26.1937 17.7221 26.0634 18.6079 26.0634 19.6759V28.7807H20.7881Z" fill="#2E2E2E"/>
<path d="M41.779 29.2496C40.1899 29.2496 38.8223 28.9239 37.676 28.2727C36.5559 27.5954 35.6962 26.6185 35.097 25.342C34.4978 24.0394 34.1983 22.4373 34.1983 20.5356V9.08631H39.4735V19.9885C39.4735 21.5776 39.7992 22.776 40.4504 23.5835C41.1278 24.3911 42.1568 24.7949 43.5374 24.7949C44.4232 24.7949 45.2047 24.5995 45.882 24.2088C46.5593 23.792 47.0934 23.2058 47.4841 22.4503C47.9009 21.6688 48.1094 20.718 48.1094 19.5978V9.08631H53.3455V28.7807H48.7346L48.3047 25.5764C47.7316 26.6966 46.885 27.5954 45.7648 28.2727C44.6446 28.9239 43.316 29.2496 41.779 29.2496Z" fill="#2E2E2E"/>
<path d="M64.2169 29.2496C62.4194 29.2496 60.8564 28.963 59.5278 28.3899C58.1992 27.8168 57.1572 27.0222 56.4017 26.0063C55.6463 24.9903 55.2164 23.8441 55.1122 22.5676H60.3484C60.4787 23.0625 60.7001 23.5184 61.0127 23.9352C61.3253 24.326 61.7421 24.6386 62.2631 24.8731C62.7842 25.1075 63.4094 25.2247 64.1388 25.2247C64.8422 25.2247 65.4153 25.1336 65.8581 24.9512C66.301 24.7428 66.6266 24.4693 66.835 24.1306C67.0695 23.792 67.1867 23.4403 67.1867 23.0756C67.1867 22.5285 67.0304 22.1117 66.7178 21.8251C66.4052 21.5125 65.9493 21.265 65.3502 21.0827C64.751 20.9003 64.0216 20.718 63.1619 20.5356C62.2241 20.3533 61.2993 20.1318 60.3875 19.8713C59.5018 19.5848 58.7072 19.2331 58.0038 18.8163C57.3005 18.3995 56.7404 17.8654 56.3236 17.2141C55.9068 16.5629 55.6984 15.7553 55.6984 14.7914C55.6984 13.6191 56.011 12.5771 56.6362 11.6653C57.2614 10.7275 58.1732 9.98506 59.3715 9.438C60.5698 8.89093 62.0157 8.6174 63.709 8.6174C66.0796 8.6174 67.9552 9.15144 69.3359 10.2195C70.7166 11.2876 71.5372 12.7595 71.7977 14.6351H66.835C66.6787 14.036 66.3271 13.567 65.78 13.2284C65.259 12.8637 64.5556 12.6813 63.6699 12.6813C62.7321 12.6813 62.0157 12.8506 61.5207 13.1893C61.0257 13.528 60.7783 13.9708 60.7783 14.5179C60.7783 14.8826 60.9346 15.2082 61.2472 15.4948C61.5858 15.7814 62.0547 16.0288 62.6539 16.2372C63.2531 16.4196 63.9825 16.6019 64.8422 16.7843C66.3531 17.0969 67.6817 17.4616 68.8279 17.8784C69.9742 18.2692 70.8729 18.8423 71.5242 19.5978C72.1755 20.3272 72.5011 21.3953 72.5011 22.802C72.5011 24.0525 72.1624 25.1726 71.4851 26.1626C70.8078 27.1264 69.8439 27.8819 68.5935 28.429C67.3691 28.976 65.9102 29.2496 64.2169 29.2496Z" fill="#2E2E2E"/>
<path d="M82.8798 28.7807C81.4991 28.7807 80.2877 28.5723 79.2457 28.1555C78.2297 27.7126 77.4352 26.9962 76.862 26.0063C76.2889 24.9903 76.0024 23.6096 76.0024 21.8642V13.5019H72.6418V9.08631H76.0024L76.5885 3.73289H81.2776V9.08631H86.4748V13.5019H81.2776V21.9423C81.2776 22.8281 81.473 23.4403 81.8638 23.7789C82.2545 24.1176 82.9188 24.2869 83.8567 24.2869H86.4357V28.7807H82.8798Z" fill="#2E2E2E"/>
<path d="M88.5699 28.7807V0.645874H93.8452V28.7807H88.5699Z" fill="#2E2E2E"/>
<path d="M105.943 29.2496C104.068 29.2496 102.374 28.8197 100.863 27.9601C99.3784 27.0743 98.1931 25.863 97.3074 24.326C96.4477 22.7629 96.0179 20.9785 96.0179 18.9726C96.0179 16.9146 96.4477 15.1171 97.3074 13.5801C98.1931 12.017 99.3914 10.8057 100.902 9.94599C102.413 9.06026 104.107 8.6174 105.982 8.6174C107.884 8.6174 109.577 9.06026 111.062 9.94599C112.573 10.8057 113.758 12.017 114.618 13.5801C115.504 15.1171 115.947 16.9015 115.947 18.9335C115.947 20.9654 115.504 22.7629 114.618 24.326C113.758 25.863 112.573 27.0743 111.062 27.9601C109.551 28.8197 107.845 29.2496 105.943 29.2496ZM105.943 24.6777C106.829 24.6777 107.61 24.4693 108.288 24.0525C108.991 23.6356 109.538 22.9974 109.929 22.1377C110.346 21.2781 110.554 20.21 110.554 18.9335C110.554 17.657 110.346 16.6019 109.929 15.7683C109.538 14.9087 108.991 14.2704 108.288 13.8536C107.61 13.4107 106.842 13.1893 105.982 13.1893C105.149 13.1893 104.38 13.4107 103.677 13.8536C102.973 14.2704 102.413 14.9087 101.997 15.7683C101.606 16.6019 101.41 17.657 101.41 18.9335C101.41 20.21 101.606 21.2781 101.997 22.1377C102.413 22.9974 102.96 23.6356 103.638 24.0525C104.341 24.4693 105.11 24.6777 105.943 24.6777Z" fill="#2E2E2E"/>
<path d="M127.683 29.2496C125.703 29.2496 123.945 28.8067 122.408 27.921C120.871 27.0353 119.673 25.8239 118.813 24.2869C117.953 22.7499 117.523 20.9915 117.523 19.0116C117.523 16.9797 117.953 15.1952 118.813 13.6582C119.673 12.0952 120.871 10.8708 122.408 9.98506C123.945 9.07329 125.703 8.6174 127.683 8.6174C130.21 8.6174 132.333 9.28169 134.053 10.6103C135.772 11.9389 136.866 13.7624 137.335 16.0809H131.747C131.513 15.1692 131.018 14.4528 130.262 13.9317C129.533 13.4107 128.66 13.1502 127.644 13.1502C126.732 13.1502 125.912 13.3847 125.182 13.8536C124.479 14.2965 123.919 14.9608 123.502 15.8465C123.111 16.7062 122.916 17.7352 122.916 18.9335C122.916 19.8453 123.033 20.6659 123.268 21.3953C123.502 22.0987 123.828 22.7108 124.245 23.2319C124.661 23.7268 125.156 24.1046 125.729 24.3651C126.329 24.6256 126.967 24.7558 127.644 24.7558C128.322 24.7558 128.934 24.6386 129.481 24.4041C130.054 24.1697 130.536 23.8441 130.927 23.4272C131.317 22.9844 131.591 22.4503 131.747 21.8251H137.335C136.866 24.0915 135.759 25.9021 134.014 27.2567C132.294 28.5853 130.184 29.2496 127.683 29.2496Z" fill="#2E2E2E"/>
<path d="M152.435 28.7807L144.034 17.9957L151.575 9.08631H157.788L148.058 20.223V16.0419L159 28.7807H152.435ZM139.54 28.7807V0.645874H144.815V28.7807H139.54Z" fill="#2E2E2E"/>
</svg>
